<mxfile host="app.diagrams.net" agent="Mozilla/5.0 (Windows NT 10.0; Win64; x64) AppleWebKit/537.36 (KHTML, like Gecko) Chrome/136.0.0.0 Safari/537.36" version="26.2.13">
  <diagram name="Страница — 1" id="xIPLS8j5PKickkAAWExY">
    <mxGraphModel dx="1283" dy="562" grid="1" gridSize="10" guides="1" tooltips="1" connect="1" arrows="1" fold="1" page="1" pageScale="1" pageWidth="827" pageHeight="1169" math="0" shadow="0">
      <root>
        <mxCell id="0" />
        <mxCell id="1" parent="0" />
        <mxCell id="Yqm8eSXUdjOJ0LHm_cu2-1" value="Tender" style="shape=table;startSize=30;container=1;collapsible=1;childLayout=tableLayout;fixedRows=1;rowLines=0;fontStyle=1;align=center;resizeLast=1;html=1;" parent="1" vertex="1">
          <mxGeometry x="411" y="210" width="356" height="210" as="geometry" />
        </mxCell>
        <mxCell id="Yqm8eSXUdjOJ0LHm_cu2-2" value="" style="shape=tableRow;horizontal=0;startSize=0;swimlaneHead=0;swimlaneBody=0;fillColor=none;collapsible=0;dropTarget=0;points=[[0,0.5],[1,0.5]];portConstraint=eastwest;top=0;left=0;right=0;bottom=1;" parent="Yqm8eSXUdjOJ0LHm_cu2-1" vertex="1">
          <mxGeometry y="30" width="356" height="30" as="geometry" />
        </mxCell>
        <mxCell id="Yqm8eSXUdjOJ0LHm_cu2-3" value="&amp;nbsp; &amp;nbsp; PK&lt;span style=&quot;font-weight: 400;&quot;&gt;&amp;nbsp; &amp;nbsp; integer&amp;nbsp; &amp;nbsp; &amp;nbsp; &amp;nbsp;not null&lt;/span&gt;" style="shape=partialRectangle;connectable=0;fillColor=none;top=0;left=0;bottom=0;right=0;fontStyle=1;overflow=hidden;whiteSpace=wrap;html=1;align=left;" parent="Yqm8eSXUdjOJ0LHm_cu2-2" vertex="1">
          <mxGeometry width="210" height="30" as="geometry">
            <mxRectangle width="210" height="30" as="alternateBounds" />
          </mxGeometry>
        </mxCell>
        <mxCell id="Yqm8eSXUdjOJ0LHm_cu2-4" value="id" style="shape=partialRectangle;connectable=0;fillColor=none;top=0;left=0;bottom=0;right=0;align=left;spacingLeft=6;fontStyle=5;overflow=hidden;whiteSpace=wrap;html=1;" parent="Yqm8eSXUdjOJ0LHm_cu2-2" vertex="1">
          <mxGeometry x="210" width="146" height="30" as="geometry">
            <mxRectangle width="146" height="30" as="alternateBounds" />
          </mxGeometry>
        </mxCell>
        <mxCell id="Yqm8eSXUdjOJ0LHm_cu2-5" value="" style="shape=tableRow;horizontal=0;startSize=0;swimlaneHead=0;swimlaneBody=0;fillColor=none;collapsible=0;dropTarget=0;points=[[0,0.5],[1,0.5]];portConstraint=eastwest;top=0;left=0;right=0;bottom=0;" parent="Yqm8eSXUdjOJ0LHm_cu2-1" vertex="1">
          <mxGeometry y="60" width="356" height="30" as="geometry" />
        </mxCell>
        <mxCell id="Yqm8eSXUdjOJ0LHm_cu2-6" value="&amp;nbsp; &amp;nbsp; &amp;nbsp; &amp;nbsp; &amp;nbsp; &amp;nbsp; &amp;nbsp;varchar&amp;nbsp; &amp;nbsp; &amp;nbsp; not null&amp;nbsp; &amp;nbsp; &amp;nbsp; &lt;b&gt;unique&lt;/b&gt;" style="shape=partialRectangle;connectable=0;fillColor=none;top=0;left=0;bottom=0;right=0;editable=1;overflow=hidden;whiteSpace=wrap;html=1;align=left;" parent="Yqm8eSXUdjOJ0LHm_cu2-5" vertex="1">
          <mxGeometry width="210" height="30" as="geometry">
            <mxRectangle width="210" height="30" as="alternateBounds" />
          </mxGeometry>
        </mxCell>
        <mxCell id="Yqm8eSXUdjOJ0LHm_cu2-7" value="code" style="shape=partialRectangle;connectable=0;fillColor=none;top=0;left=0;bottom=0;right=0;align=left;spacingLeft=6;overflow=hidden;whiteSpace=wrap;html=1;" parent="Yqm8eSXUdjOJ0LHm_cu2-5" vertex="1">
          <mxGeometry x="210" width="146" height="30" as="geometry">
            <mxRectangle width="146" height="30" as="alternateBounds" />
          </mxGeometry>
        </mxCell>
        <mxCell id="Yqm8eSXUdjOJ0LHm_cu2-14" style="shape=tableRow;horizontal=0;startSize=0;swimlaneHead=0;swimlaneBody=0;fillColor=none;collapsible=0;dropTarget=0;points=[[0,0.5],[1,0.5]];portConstraint=eastwest;top=0;left=0;right=0;bottom=0;" parent="Yqm8eSXUdjOJ0LHm_cu2-1" vertex="1">
          <mxGeometry y="90" width="356" height="30" as="geometry" />
        </mxCell>
        <mxCell id="Yqm8eSXUdjOJ0LHm_cu2-15" value="&amp;nbsp; &amp;nbsp; &amp;nbsp; &amp;nbsp; &amp;nbsp; &amp;nbsp; &amp;nbsp; varchar&amp;nbsp; &amp;nbsp; &amp;nbsp;not null&amp;nbsp; &amp;nbsp; &amp;nbsp;&amp;nbsp;&lt;b&gt;unique&lt;/b&gt;" style="shape=partialRectangle;connectable=0;fillColor=none;top=0;left=0;bottom=0;right=0;editable=1;overflow=hidden;whiteSpace=wrap;html=1;align=left;" parent="Yqm8eSXUdjOJ0LHm_cu2-14" vertex="1">
          <mxGeometry width="210" height="30" as="geometry">
            <mxRectangle width="210" height="30" as="alternateBounds" />
          </mxGeometry>
        </mxCell>
        <mxCell id="Yqm8eSXUdjOJ0LHm_cu2-16" value="number" style="shape=partialRectangle;connectable=0;fillColor=none;top=0;left=0;bottom=0;right=0;align=left;spacingLeft=6;overflow=hidden;whiteSpace=wrap;html=1;" parent="Yqm8eSXUdjOJ0LHm_cu2-14" vertex="1">
          <mxGeometry x="210" width="146" height="30" as="geometry">
            <mxRectangle width="146" height="30" as="alternateBounds" />
          </mxGeometry>
        </mxCell>
        <mxCell id="Yqm8eSXUdjOJ0LHm_cu2-17" style="shape=tableRow;horizontal=0;startSize=0;swimlaneHead=0;swimlaneBody=0;fillColor=none;collapsible=0;dropTarget=0;points=[[0,0.5],[1,0.5]];portConstraint=eastwest;top=0;left=0;right=0;bottom=0;" parent="Yqm8eSXUdjOJ0LHm_cu2-1" vertex="1">
          <mxGeometry y="120" width="356" height="30" as="geometry" />
        </mxCell>
        <mxCell id="Yqm8eSXUdjOJ0LHm_cu2-18" value="&lt;b&gt;&amp;nbsp; &amp;nbsp; FK&lt;/b&gt;&amp;nbsp; &amp;nbsp; &amp;nbsp;integer" style="shape=partialRectangle;connectable=0;fillColor=none;top=0;left=0;bottom=0;right=0;editable=1;overflow=hidden;whiteSpace=wrap;html=1;align=left;" parent="Yqm8eSXUdjOJ0LHm_cu2-17" vertex="1">
          <mxGeometry width="210" height="30" as="geometry">
            <mxRectangle width="210" height="30" as="alternateBounds" />
          </mxGeometry>
        </mxCell>
        <mxCell id="Yqm8eSXUdjOJ0LHm_cu2-19" value="status_id" style="shape=partialRectangle;connectable=0;fillColor=none;top=0;left=0;bottom=0;right=0;align=left;spacingLeft=6;overflow=hidden;whiteSpace=wrap;html=1;" parent="Yqm8eSXUdjOJ0LHm_cu2-17" vertex="1">
          <mxGeometry x="210" width="146" height="30" as="geometry">
            <mxRectangle width="146" height="30" as="alternateBounds" />
          </mxGeometry>
        </mxCell>
        <mxCell id="Yqm8eSXUdjOJ0LHm_cu2-8" value="" style="shape=tableRow;horizontal=0;startSize=0;swimlaneHead=0;swimlaneBody=0;fillColor=none;collapsible=0;dropTarget=0;points=[[0,0.5],[1,0.5]];portConstraint=eastwest;top=0;left=0;right=0;bottom=0;" parent="Yqm8eSXUdjOJ0LHm_cu2-1" vertex="1">
          <mxGeometry y="150" width="356" height="30" as="geometry" />
        </mxCell>
        <mxCell id="Yqm8eSXUdjOJ0LHm_cu2-9" value="&amp;nbsp; &amp;nbsp; &amp;nbsp; &amp;nbsp; &amp;nbsp; &amp;nbsp; &amp;nbsp; varchar&amp;nbsp; &amp;nbsp; &amp;nbsp;not null" style="shape=partialRectangle;connectable=0;fillColor=none;top=0;left=0;bottom=0;right=0;editable=1;overflow=hidden;whiteSpace=wrap;html=1;align=left;" parent="Yqm8eSXUdjOJ0LHm_cu2-8" vertex="1">
          <mxGeometry width="210" height="30" as="geometry">
            <mxRectangle width="210" height="30" as="alternateBounds" />
          </mxGeometry>
        </mxCell>
        <mxCell id="Yqm8eSXUdjOJ0LHm_cu2-10" value="name" style="shape=partialRectangle;connectable=0;fillColor=none;top=0;left=0;bottom=0;right=0;align=left;spacingLeft=6;overflow=hidden;whiteSpace=wrap;html=1;" parent="Yqm8eSXUdjOJ0LHm_cu2-8" vertex="1">
          <mxGeometry x="210" width="146" height="30" as="geometry">
            <mxRectangle width="146" height="30" as="alternateBounds" />
          </mxGeometry>
        </mxCell>
        <mxCell id="Yqm8eSXUdjOJ0LHm_cu2-11" value="" style="shape=tableRow;horizontal=0;startSize=0;swimlaneHead=0;swimlaneBody=0;fillColor=none;collapsible=0;dropTarget=0;points=[[0,0.5],[1,0.5]];portConstraint=eastwest;top=0;left=0;right=0;bottom=0;" parent="Yqm8eSXUdjOJ0LHm_cu2-1" vertex="1">
          <mxGeometry y="180" width="356" height="30" as="geometry" />
        </mxCell>
        <mxCell id="Yqm8eSXUdjOJ0LHm_cu2-12" value="&amp;nbsp; &amp;nbsp; &amp;nbsp; &amp;nbsp; &amp;nbsp; &amp;nbsp; &amp;nbsp; datetime&amp;nbsp; &amp;nbsp; not null" style="shape=partialRectangle;connectable=0;fillColor=none;top=0;left=0;bottom=0;right=0;editable=1;overflow=hidden;whiteSpace=wrap;html=1;align=left;" parent="Yqm8eSXUdjOJ0LHm_cu2-11" vertex="1">
          <mxGeometry width="210" height="30" as="geometry">
            <mxRectangle width="210" height="30" as="alternateBounds" />
          </mxGeometry>
        </mxCell>
        <mxCell id="Yqm8eSXUdjOJ0LHm_cu2-13" value="updated_at" style="shape=partialRectangle;connectable=0;fillColor=none;top=0;left=0;bottom=0;right=0;align=left;spacingLeft=6;overflow=hidden;whiteSpace=wrap;html=1;" parent="Yqm8eSXUdjOJ0LHm_cu2-11" vertex="1">
          <mxGeometry x="210" width="146" height="30" as="geometry">
            <mxRectangle width="146" height="30" as="alternateBounds" />
          </mxGeometry>
        </mxCell>
        <mxCell id="Yqm8eSXUdjOJ0LHm_cu2-20" value="Status" style="shape=table;startSize=30;container=1;collapsible=1;childLayout=tableLayout;fixedRows=1;rowLines=0;fontStyle=1;align=center;resizeLast=1;html=1;" parent="1" vertex="1">
          <mxGeometry x="50" y="230" width="280" height="90" as="geometry" />
        </mxCell>
        <mxCell id="Yqm8eSXUdjOJ0LHm_cu2-21" value="" style="shape=tableRow;horizontal=0;startSize=0;swimlaneHead=0;swimlaneBody=0;fillColor=none;collapsible=0;dropTarget=0;points=[[0,0.5],[1,0.5]];portConstraint=eastwest;top=0;left=0;right=0;bottom=1;" parent="Yqm8eSXUdjOJ0LHm_cu2-20" vertex="1">
          <mxGeometry y="30" width="280" height="30" as="geometry" />
        </mxCell>
        <mxCell id="Yqm8eSXUdjOJ0LHm_cu2-22" value="&amp;nbsp; &amp;nbsp; PK&lt;span style=&quot;font-weight: 400;&quot;&gt;&amp;nbsp; &amp;nbsp; &amp;nbsp;integer&amp;nbsp; &amp;nbsp; &amp;nbsp;not null&lt;/span&gt;" style="shape=partialRectangle;connectable=0;fillColor=none;top=0;left=0;bottom=0;right=0;fontStyle=1;overflow=hidden;whiteSpace=wrap;html=1;align=left;" parent="Yqm8eSXUdjOJ0LHm_cu2-21" vertex="1">
          <mxGeometry width="150" height="30" as="geometry">
            <mxRectangle width="150" height="30" as="alternateBounds" />
          </mxGeometry>
        </mxCell>
        <mxCell id="Yqm8eSXUdjOJ0LHm_cu2-23" value="id" style="shape=partialRectangle;connectable=0;fillColor=none;top=0;left=0;bottom=0;right=0;align=left;spacingLeft=6;fontStyle=5;overflow=hidden;whiteSpace=wrap;html=1;" parent="Yqm8eSXUdjOJ0LHm_cu2-21" vertex="1">
          <mxGeometry x="150" width="130" height="30" as="geometry">
            <mxRectangle width="130" height="30" as="alternateBounds" />
          </mxGeometry>
        </mxCell>
        <mxCell id="Yqm8eSXUdjOJ0LHm_cu2-24" value="" style="shape=tableRow;horizontal=0;startSize=0;swimlaneHead=0;swimlaneBody=0;fillColor=none;collapsible=0;dropTarget=0;points=[[0,0.5],[1,0.5]];portConstraint=eastwest;top=0;left=0;right=0;bottom=0;" parent="Yqm8eSXUdjOJ0LHm_cu2-20" vertex="1">
          <mxGeometry y="60" width="280" height="30" as="geometry" />
        </mxCell>
        <mxCell id="Yqm8eSXUdjOJ0LHm_cu2-25" value="&amp;nbsp; &amp;nbsp; &amp;nbsp; &amp;nbsp; &amp;nbsp; &amp;nbsp; &amp;nbsp; varchar&amp;nbsp; &amp;nbsp; not null" style="shape=partialRectangle;connectable=0;fillColor=none;top=0;left=0;bottom=0;right=0;editable=1;overflow=hidden;whiteSpace=wrap;html=1;align=left;" parent="Yqm8eSXUdjOJ0LHm_cu2-24" vertex="1">
          <mxGeometry width="150" height="30" as="geometry">
            <mxRectangle width="150" height="30" as="alternateBounds" />
          </mxGeometry>
        </mxCell>
        <mxCell id="Yqm8eSXUdjOJ0LHm_cu2-26" value="name" style="shape=partialRectangle;connectable=0;fillColor=none;top=0;left=0;bottom=0;right=0;align=left;spacingLeft=6;overflow=hidden;whiteSpace=wrap;html=1;" parent="Yqm8eSXUdjOJ0LHm_cu2-24" vertex="1">
          <mxGeometry x="150" width="130" height="30" as="geometry">
            <mxRectangle width="130" height="30" as="alternateBounds" />
          </mxGeometry>
        </mxCell>
        <mxCell id="sWNCH2pXlZW9ZAarktlJ-1" value="" style="edgeStyle=entityRelationEdgeStyle;fontSize=12;html=1;endArrow=ERzeroToMany;startArrow=ERzeroToOne;rounded=0;entryX=0;entryY=0.5;entryDx=0;entryDy=0;exitX=1;exitY=0.5;exitDx=0;exitDy=0;" parent="1" source="Yqm8eSXUdjOJ0LHm_cu2-21" target="Yqm8eSXUdjOJ0LHm_cu2-17" edge="1">
          <mxGeometry width="100" height="100" relative="1" as="geometry">
            <mxPoint x="70" y="530" as="sourcePoint" />
            <mxPoint x="170" y="430" as="targetPoint" />
          </mxGeometry>
        </mxCell>
        <mxCell id="sWNCH2pXlZW9ZAarktlJ-2" value="&lt;b&gt;&lt;font style=&quot;font-size: 24px;&quot;&gt;Физическая схема БД &quot;Тендеры&quot;&lt;/font&gt;&lt;/b&gt;" style="text;html=1;align=center;verticalAlign=middle;whiteSpace=wrap;rounded=0;" parent="1" vertex="1">
          <mxGeometry x="216" y="50" width="396" height="30" as="geometry" />
        </mxCell>
      </root>
    </mxGraphModel>
  </diagram>
</mxfile>
